<?xml version="1.0" encoding="UTF-8" standalone="no"?>
<!-- This is a Stata 15.1 generated SVG file (http://www.stata.com) -->

<svg version="1.1" width="600px" height="436px" viewBox="0 0 3960 2880" xmlns="http://www.w3.org/2000/svg" xmlns:xlink="http://www.w3.org/1999/xlink">
	<desc>Stata Graph - Graph</desc>
	<rect x="0" y="0" width="3960" height="2880" style="fill:#EAF2F3;stroke:none"/>
	<rect x="0.00" y="0.00" width="3959.88" height="2880.00" style="fill:#EAF2F3"/>
	<rect x="2.88" y="2.88" width="3954.12" height="2874.24" style="fill:none;stroke:#EAF2F3;stroke-width:5.76"/>
	<rect x="1058.56" y="100.86" width="2132.83" height="2132.77" style="fill:#FFFFFF"/>
	<rect x="1061.44" y="103.74" width="2127.07" height="2127.01" style="fill:none;stroke:#FFFFFF;stroke-width:5.76"/>
	<line x1="1058.56" y1="2170.27" x2="3191.39" y2="2170.27" style="stroke:#EAF2F3;stroke-width:8.64"/>
	<line x1="1058.56" y1="1769.06" x2="3191.39" y2="1769.06" style="stroke:#EAF2F3;stroke-width:8.64"/>
	<line x1="1058.56" y1="1367.85" x2="3191.39" y2="1367.85" style="stroke:#EAF2F3;stroke-width:8.64"/>
	<line x1="1058.56" y1="966.64" x2="3191.39" y2="966.64" style="stroke:#EAF2F3;stroke-width:8.64"/>
	<line x1="1058.56" y1="565.43" x2="3191.39" y2="565.43" style="stroke:#EAF2F3;stroke-width:8.64"/>
	<line x1="1058.56" y1="164.22" x2="3191.39" y2="164.22" style="stroke:#EAF2F3;stroke-width:8.64"/>
	<line x1="1121.92" y1="2233.63" x2="1121.92" y2="100.86" style="stroke:#EAF2F3;stroke-width:8.64"/>
	<line x1="1523.12" y1="2233.63" x2="1523.12" y2="100.86" style="stroke:#EAF2F3;stroke-width:8.64"/>
	<line x1="1924.31" y1="2233.63" x2="1924.31" y2="100.86" style="stroke:#EAF2F3;stroke-width:8.64"/>
	<line x1="2325.51" y1="2233.63" x2="2325.51" y2="100.86" style="stroke:#EAF2F3;stroke-width:8.64"/>
	<line x1="2726.71" y1="2233.63" x2="2726.71" y2="100.86" style="stroke:#EAF2F3;stroke-width:8.64"/>
	<line x1="3128.03" y1="2233.63" x2="3128.03" y2="100.86" style="stroke:#EAF2F3;stroke-width:8.64"/>
	<line x1="1121.92" y1="2170.27" x2="3128.03" y2="164.22" style="stroke:#C10534;stroke-width:8.64"/>
	<line x1="1121.79" y1="2170.40" x2="1222.15" y2="2170.40" stroke-linecap="round" style="stroke:#C0C0C0;stroke-width:8.64"/>
	<line x1="1222.15" y1="2170.40" x2="1322.39" y2="2170.40" stroke-linecap="round" style="stroke:#C0C0C0;stroke-width:8.64"/>
	<line x1="1322.39" y1="2170.40" x2="1422.75" y2="2170.40" stroke-linecap="round" style="stroke:#C0C0C0;stroke-width:8.64"/>
	<line x1="1422.75" y1="2170.40" x2="1522.99" y2="2170.40" stroke-linecap="round" style="stroke:#C0C0C0;stroke-width:8.64"/>
	<line x1="1522.99" y1="2170.40" x2="1623.35" y2="2170.40" stroke-linecap="round" style="stroke:#C0C0C0;stroke-width:8.64"/>
	<line x1="1623.35" y1="2170.40" x2="1723.59" y2="2170.40" stroke-linecap="round" style="stroke:#C0C0C0;stroke-width:8.64"/>
	<line x1="1723.59" y1="2170.40" x2="1823.95" y2="2170.40" stroke-linecap="round" style="stroke:#C0C0C0;stroke-width:8.64"/>
	<line x1="1823.95" y1="2170.40" x2="1924.31" y2="2170.40" stroke-linecap="round" style="stroke:#C0C0C0;stroke-width:8.64"/>
	<line x1="1924.31" y1="2170.40" x2="2024.55" y2="2160.87" stroke-linecap="round" style="stroke:#C0C0C0;stroke-width:8.64"/>
	<line x1="2024.55" y1="2160.87" x2="2124.91" y2="2117.55" stroke-linecap="round" style="stroke:#C0C0C0;stroke-width:8.64"/>
	<line x1="2124.91" y1="2117.55" x2="2225.15" y2="2048.25" stroke-linecap="round" style="stroke:#C0C0C0;stroke-width:8.64"/>
	<line x1="2225.15" y1="2048.25" x2="2325.51" y2="1962.74" stroke-linecap="round" style="stroke:#C0C0C0;stroke-width:8.64"/>
	<line x1="2325.51" y1="1962.74" x2="2425.75" y2="1863.49" stroke-linecap="round" style="stroke:#C0C0C0;stroke-width:8.64"/>
	<line x1="2425.75" y1="1863.49" x2="2526.11" y2="1746.17" stroke-linecap="round" style="stroke:#C0C0C0;stroke-width:8.64"/>
	<line x1="2526.11" y1="1746.17" x2="2626.35" y2="1604.72" stroke-linecap="round" style="stroke:#C0C0C0;stroke-width:8.64"/>
	<line x1="2626.35" y1="1604.72" x2="2726.71" y2="1434.43" stroke-linecap="round" style="stroke:#C0C0C0;stroke-width:8.64"/>
	<line x1="2726.71" y1="1434.43" x2="2826.95" y2="1231.60" stroke-linecap="round" style="stroke:#C0C0C0;stroke-width:8.64"/>
	<line x1="2826.95" y1="1231.60" x2="2927.31" y2="989.66" stroke-linecap="round" style="stroke:#C0C0C0;stroke-width:8.64"/>
	<line x1="2927.31" y1="989.66" x2="3027.67" y2="689.56" stroke-linecap="round" style="stroke:#C0C0C0;stroke-width:8.64"/>
	<line x1="3027.67" y1="689.56" x2="3127.91" y2="164.22" stroke-linecap="round" style="stroke:#C0C0C0;stroke-width:8.64"/>
	<line x1="1121.79" y1="2170.40" x2="1222.15" y2="2170.40" stroke-linecap="round" style="stroke:#C0C0C0;stroke-width:8.64"/>
	<line x1="1222.15" y1="2170.40" x2="1322.39" y2="2170.40" stroke-linecap="round" style="stroke:#C0C0C0;stroke-width:8.64"/>
	<line x1="1322.39" y1="2170.40" x2="1422.75" y2="2170.40" stroke-linecap="round" style="stroke:#C0C0C0;stroke-width:8.64"/>
	<line x1="1422.75" y1="2170.40" x2="1522.99" y2="2170.40" stroke-linecap="round" style="stroke:#C0C0C0;stroke-width:8.64"/>
	<line x1="1522.99" y1="2170.40" x2="1623.35" y2="2170.40" stroke-linecap="round" style="stroke:#C0C0C0;stroke-width:8.64"/>
	<line x1="1623.35" y1="2170.40" x2="1723.59" y2="2170.40" stroke-linecap="round" style="stroke:#C0C0C0;stroke-width:8.64"/>
	<line x1="1723.59" y1="2170.40" x2="1823.95" y2="2170.40" stroke-linecap="round" style="stroke:#C0C0C0;stroke-width:8.64"/>
	<line x1="1823.95" y1="2170.40" x2="1924.31" y2="2170.40" stroke-linecap="round" style="stroke:#C0C0C0;stroke-width:8.64"/>
	<line x1="1924.31" y1="2170.40" x2="2024.55" y2="2157.52" stroke-linecap="round" style="stroke:#C0C0C0;stroke-width:8.64"/>
	<line x1="2024.55" y1="2157.52" x2="2124.91" y2="2110.99" stroke-linecap="round" style="stroke:#C0C0C0;stroke-width:8.64"/>
	<line x1="2124.91" y1="2110.99" x2="2225.15" y2="2039.71" stroke-linecap="round" style="stroke:#C0C0C0;stroke-width:8.64"/>
	<line x1="2225.15" y1="2039.71" x2="2325.51" y2="1953.58" stroke-linecap="round" style="stroke:#C0C0C0;stroke-width:8.64"/>
	<line x1="2325.51" y1="1953.58" x2="2425.75" y2="1853.83" stroke-linecap="round" style="stroke:#C0C0C0;stroke-width:8.64"/>
	<line x1="2425.75" y1="1853.83" x2="2526.11" y2="1735.28" stroke-linecap="round" style="stroke:#C0C0C0;stroke-width:8.64"/>
	<line x1="2526.11" y1="1735.28" x2="2626.35" y2="1592.96" stroke-linecap="round" style="stroke:#C0C0C0;stroke-width:8.64"/>
	<line x1="2626.35" y1="1592.96" x2="2726.71" y2="1422.06" stroke-linecap="round" style="stroke:#C0C0C0;stroke-width:8.64"/>
	<line x1="2726.71" y1="1422.06" x2="2826.95" y2="1218.85" stroke-linecap="round" style="stroke:#C0C0C0;stroke-width:8.64"/>
	<line x1="2826.95" y1="1218.85" x2="2927.31" y2="976.17" stroke-linecap="round" style="stroke:#C0C0C0;stroke-width:8.64"/>
	<line x1="2927.31" y1="976.17" x2="3027.67" y2="675.94" stroke-linecap="round" style="stroke:#C0C0C0;stroke-width:8.64"/>
	<line x1="3027.67" y1="675.94" x2="3127.91" y2="164.22" stroke-linecap="round" style="stroke:#C0C0C0;stroke-width:8.64"/>
	<line x1="1121.79" y1="2170.40" x2="1222.15" y2="2170.40" stroke-linecap="round" style="stroke:#C0C0C0;stroke-width:8.64"/>
	<line x1="1222.15" y1="2170.40" x2="1322.39" y2="2170.40" stroke-linecap="round" style="stroke:#C0C0C0;stroke-width:8.64"/>
	<line x1="1322.39" y1="2170.40" x2="1422.75" y2="2170.40" stroke-linecap="round" style="stroke:#C0C0C0;stroke-width:8.64"/>
	<line x1="1422.75" y1="2170.40" x2="1522.99" y2="2170.40" stroke-linecap="round" style="stroke:#C0C0C0;stroke-width:8.64"/>
	<line x1="1522.99" y1="2170.40" x2="1623.35" y2="2170.40" stroke-linecap="round" style="stroke:#C0C0C0;stroke-width:8.64"/>
	<line x1="1623.35" y1="2170.40" x2="1723.59" y2="2170.40" stroke-linecap="round" style="stroke:#C0C0C0;stroke-width:8.64"/>
	<line x1="1723.59" y1="2170.40" x2="1823.95" y2="2170.40" stroke-linecap="round" style="stroke:#C0C0C0;stroke-width:8.64"/>
	<line x1="1823.95" y1="2170.40" x2="1924.31" y2="2170.40" stroke-linecap="round" style="stroke:#C0C0C0;stroke-width:8.64"/>
	<line x1="1924.31" y1="2170.40" x2="2024.55" y2="2160.62" stroke-linecap="round" style="stroke:#C0C0C0;stroke-width:8.64"/>
	<line x1="2024.55" y1="2160.62" x2="2124.91" y2="2116.07" stroke-linecap="round" style="stroke:#C0C0C0;stroke-width:8.64"/>
	<line x1="2124.91" y1="2116.07" x2="2225.15" y2="2045.03" stroke-linecap="round" style="stroke:#C0C0C0;stroke-width:8.64"/>
	<line x1="2225.15" y1="2045.03" x2="2325.51" y2="1958.40" stroke-linecap="round" style="stroke:#C0C0C0;stroke-width:8.64"/>
	<line x1="2325.51" y1="1958.40" x2="2425.75" y2="1858.78" stroke-linecap="round" style="stroke:#C0C0C0;stroke-width:8.64"/>
	<line x1="2425.75" y1="1858.78" x2="2526.11" y2="1740.47" stroke-linecap="round" style="stroke:#C0C0C0;stroke-width:8.64"/>
	<line x1="2526.11" y1="1740.47" x2="2626.35" y2="1598.78" stroke-linecap="round" style="stroke:#C0C0C0;stroke-width:8.64"/>
	<line x1="2626.35" y1="1598.78" x2="2726.71" y2="1427.25" stroke-linecap="round" style="stroke:#C0C0C0;stroke-width:8.64"/>
	<line x1="2726.71" y1="1427.25" x2="2826.95" y2="1223.06" stroke-linecap="round" style="stroke:#C0C0C0;stroke-width:8.64"/>
	<line x1="2826.95" y1="1223.06" x2="2927.31" y2="980.75" stroke-linecap="round" style="stroke:#C0C0C0;stroke-width:8.64"/>
	<line x1="2927.31" y1="980.75" x2="3027.67" y2="678.91" stroke-linecap="round" style="stroke:#C0C0C0;stroke-width:8.64"/>
	<line x1="3027.67" y1="678.91" x2="3127.91" y2="164.22" stroke-linecap="round" style="stroke:#C0C0C0;stroke-width:8.64"/>
	<line x1="1121.79" y1="2170.40" x2="1222.15" y2="2170.40" stroke-linecap="round" style="stroke:#C0C0C0;stroke-width:8.64"/>
	<line x1="1222.15" y1="2170.40" x2="1322.39" y2="2170.40" stroke-linecap="round" style="stroke:#C0C0C0;stroke-width:8.64"/>
	<line x1="1322.39" y1="2170.40" x2="1422.75" y2="2170.40" stroke-linecap="round" style="stroke:#C0C0C0;stroke-width:8.64"/>
	<line x1="1422.75" y1="2170.40" x2="1522.99" y2="2170.40" stroke-linecap="round" style="stroke:#C0C0C0;stroke-width:8.64"/>
	<line x1="1522.99" y1="2170.40" x2="1623.35" y2="2170.40" stroke-linecap="round" style="stroke:#C0C0C0;stroke-width:8.64"/>
	<line x1="1623.35" y1="2170.40" x2="1723.59" y2="2170.40" stroke-linecap="round" style="stroke:#C0C0C0;stroke-width:8.64"/>
	<line x1="1723.59" y1="2170.40" x2="1823.95" y2="2170.40" stroke-linecap="round" style="stroke:#C0C0C0;stroke-width:8.64"/>
	<line x1="1823.95" y1="2170.40" x2="1924.31" y2="2170.40" stroke-linecap="round" style="stroke:#C0C0C0;stroke-width:8.64"/>
	<line x1="1924.31" y1="2170.40" x2="2024.55" y2="2157.15" stroke-linecap="round" style="stroke:#C0C0C0;stroke-width:8.64"/>
	<line x1="2024.55" y1="2157.15" x2="2124.91" y2="2109.26" stroke-linecap="round" style="stroke:#C0C0C0;stroke-width:8.64"/>
	<line x1="2124.91" y1="2109.26" x2="2225.15" y2="2036.37" stroke-linecap="round" style="stroke:#C0C0C0;stroke-width:8.64"/>
	<line x1="2225.15" y1="2036.37" x2="2325.51" y2="1949.25" stroke-linecap="round" style="stroke:#C0C0C0;stroke-width:8.64"/>
	<line x1="2325.51" y1="1949.25" x2="2425.75" y2="1849.38" stroke-linecap="round" style="stroke:#C0C0C0;stroke-width:8.64"/>
	<line x1="2425.75" y1="1849.38" x2="2526.11" y2="1729.83" stroke-linecap="round" style="stroke:#C0C0C0;stroke-width:8.64"/>
	<line x1="2526.11" y1="1729.83" x2="2626.35" y2="1587.39" stroke-linecap="round" style="stroke:#C0C0C0;stroke-width:8.64"/>
	<line x1="2626.35" y1="1587.39" x2="2726.71" y2="1414.88" stroke-linecap="round" style="stroke:#C0C0C0;stroke-width:8.64"/>
	<line x1="2726.71" y1="1414.88" x2="2826.95" y2="1210.56" stroke-linecap="round" style="stroke:#C0C0C0;stroke-width:8.64"/>
	<line x1="2826.95" y1="1210.56" x2="2927.31" y2="967.88" stroke-linecap="round" style="stroke:#C0C0C0;stroke-width:8.64"/>
	<line x1="2927.31" y1="967.88" x2="3027.67" y2="666.17" stroke-linecap="round" style="stroke:#C0C0C0;stroke-width:8.64"/>
	<line x1="3027.67" y1="666.17" x2="3127.91" y2="164.22" stroke-linecap="round" style="stroke:#C0C0C0;stroke-width:8.64"/>
	<line x1="1121.79" y1="2170.40" x2="1179.34" y2="2170.40" style="stroke:#1A476F;stroke-width:8.64"/>
	<line x1="1208.17" y1="2170.40" x2="1222.15" y2="2170.40" style="stroke:#1A476F;stroke-width:8.64"/>
	<line x1="1222.15" y1="2170.40" x2="1265.71" y2="2170.40" style="stroke:#1A476F;stroke-width:8.64"/>
	<line x1="1294.55" y1="2170.40" x2="1322.39" y2="2170.40" style="stroke:#1A476F;stroke-width:8.64"/>
	<line x1="1322.39" y1="2170.40" x2="1352.09" y2="2170.40" style="stroke:#1A476F;stroke-width:8.64"/>
	<line x1="1380.93" y1="2170.40" x2="1422.75" y2="2170.40" style="stroke:#1A476F;stroke-width:8.64"/>
	<line x1="1422.75" y1="2170.40" x2="1438.47" y2="2170.40" style="stroke:#1A476F;stroke-width:8.64"/>
	<line x1="1467.30" y1="2170.40" x2="1522.99" y2="2170.40" style="stroke:#1A476F;stroke-width:8.64"/>
	<line x1="1522.99" y1="2170.40" x2="1524.85" y2="2170.40" style="stroke:#1A476F;stroke-width:8.64"/>
	<line x1="1553.68" y1="2170.40" x2="1611.35" y2="2170.40" style="stroke:#1A476F;stroke-width:8.64"/>
	<line x1="1640.06" y1="2170.40" x2="1697.73" y2="2170.40" style="stroke:#1A476F;stroke-width:8.64"/>
	<line x1="1726.56" y1="2170.40" x2="1784.10" y2="2170.40" style="stroke:#1A476F;stroke-width:8.64"/>
	<line x1="1812.94" y1="2170.40" x2="1823.95" y2="2170.40" style="stroke:#1A476F;stroke-width:8.64"/>
	<line x1="1823.95" y1="2170.40" x2="1870.48" y2="2170.40" style="stroke:#1A476F;stroke-width:8.64"/>
	<line x1="1899.32" y1="2170.40" x2="1924.31" y2="2170.40" style="stroke:#1A476F;stroke-width:8.64"/>
	<line x1="1924.31" y1="2170.40" x2="1956.61" y2="2166.81" style="stroke:#1A476F;stroke-width:8.64"/>
	<line x1="1985.32" y1="2163.59" x2="2024.55" y2="2159.26" style="stroke:#1A476F;stroke-width:8.64"/>
	<line x1="2024.55" y1="2159.26" x2="2041.01" y2="2151.83" style="stroke:#1A476F;stroke-width:8.64"/>
	<line x1="2067.37" y1="2140.08" x2="2119.84" y2="2116.44" style="stroke:#1A476F;stroke-width:8.64"/>
	<line x1="2143.97" y1="2100.85" x2="2191.12" y2="2067.93" style="stroke:#1A476F;stroke-width:8.64"/>
	<line x1="2214.75" y1="2051.34" x2="2225.15" y2="2044.04" style="stroke:#1A476F;stroke-width:8.64"/>
	<line x1="2225.15" y1="2044.04" x2="2259.30" y2="2014.84" style="stroke:#1A476F;stroke-width:8.64"/>
	<line x1="2281.08" y1="1996.15" x2="2324.89" y2="1958.65" style="stroke:#1A476F;stroke-width:8.64"/>
	<line x1="2345.43" y1="1938.36" x2="2386.27" y2="1897.89" style="stroke:#1A476F;stroke-width:8.64"/>
	<line x1="2406.81" y1="1877.59" x2="2425.75" y2="1858.66" style="stroke:#1A476F;stroke-width:8.64"/>
	<line x1="2425.75" y1="1858.66" x2="2445.67" y2="1835.15" style="stroke:#1A476F;stroke-width:8.64"/>
	<line x1="2464.36" y1="1813.24" x2="2501.73" y2="1769.43" style="stroke:#1A476F;stroke-width:8.64"/>
	<line x1="2520.29" y1="1747.40" x2="2526.11" y2="1740.72" style="stroke:#1A476F;stroke-width:8.64"/>
	<line x1="2526.11" y1="1740.72" x2="2554.20" y2="1701.00" style="stroke:#1A476F;stroke-width:8.64"/>
	<line x1="2570.78" y1="1677.48" x2="2604.07" y2="1630.46" style="stroke:#1A476F;stroke-width:8.64"/>
	<line x1="2620.65" y1="1606.94" x2="2626.35" y2="1598.90" style="stroke:#1A476F;stroke-width:8.64"/>
	<line x1="2626.35" y1="1598.90" x2="2650.60" y2="1557.69" style="stroke:#1A476F;stroke-width:8.64"/>
	<line x1="2665.20" y1="1532.82" x2="2694.41" y2="1483.19" style="stroke:#1A476F;stroke-width:8.64"/>
	<line x1="2709.01" y1="1458.32" x2="2726.71" y2="1428.24" style="stroke:#1A476F;stroke-width:8.64"/>
	<line x1="2726.71" y1="1428.24" x2="2736.73" y2="1407.95" style="stroke:#1A476F;stroke-width:8.64"/>
	<line x1="2749.48" y1="1382.08" x2="2774.97" y2="1330.48" style="stroke:#1A476F;stroke-width:8.64"/>
	<line x1="2787.72" y1="1304.61" x2="2813.21" y2="1253.01" style="stroke:#1A476F;stroke-width:8.64"/>
	<line x1="2825.95" y1="1227.14" x2="2826.95" y2="1225.29" style="stroke:#1A476F;stroke-width:8.64"/>
	<line x1="2826.95" y1="1225.29" x2="2848.11" y2="1174.05" style="stroke:#1A476F;stroke-width:8.64"/>
	<line x1="2859.12" y1="1147.45" x2="2881.27" y2="1094.23" style="stroke:#1A476F;stroke-width:8.64"/>
	<line x1="2892.28" y1="1067.62" x2="2914.31" y2="1014.41" style="stroke:#1A476F;stroke-width:8.64"/>
	<line x1="2925.33" y1="987.80" x2="2927.31" y2="982.98" style="stroke:#1A476F;stroke-width:8.64"/>
	<line x1="2927.31" y1="982.98" x2="2943.89" y2="933.23" style="stroke:#1A476F;stroke-width:8.64"/>
	<line x1="2953.05" y1="905.88" x2="2971.36" y2="851.30" style="stroke:#1A476F;stroke-width:8.64"/>
	<line x1="2980.52" y1="823.95" x2="2998.71" y2="769.38" style="stroke:#1A476F;stroke-width:8.64"/>
	<line x1="3007.87" y1="742.03" x2="3026.06" y2="687.45" style="stroke:#1A476F;stroke-width:8.64"/>
	<line x1="3032.25" y1="659.24" x2="3043.14" y2="602.81" style="stroke:#1A476F;stroke-width:8.64"/>
	<line x1="3048.58" y1="574.47" x2="3059.47" y2="517.91" style="stroke:#1A476F;stroke-width:8.64"/>
	<line x1="3065.04" y1="489.69" x2="3075.93" y2="433.14" style="stroke:#1A476F;stroke-width:8.64"/>
	<line x1="3081.38" y1="404.92" x2="3092.26" y2="348.37" style="stroke:#1A476F;stroke-width:8.64"/>
	<line x1="3097.71" y1="320.03" x2="3108.72" y2="263.47" style="stroke:#1A476F;stroke-width:8.64"/>
	<line x1="3114.17" y1="235.26" x2="3125.06" y2="178.70" style="stroke:#1A476F;stroke-width:8.64"/>
	<line x1="1121.79" y1="2170.40" x2="1179.34" y2="2170.40" style="stroke:#90353B;stroke-width:8.64"/>
	<line x1="1208.17" y1="2170.40" x2="1222.15" y2="2170.40" style="stroke:#90353B;stroke-width:8.64"/>
	<line x1="1222.15" y1="2170.40" x2="1265.71" y2="2170.40" style="stroke:#90353B;stroke-width:8.64"/>
	<line x1="1294.55" y1="2170.40" x2="1322.39" y2="2170.40" style="stroke:#90353B;stroke-width:8.64"/>
	<line x1="1322.39" y1="2170.40" x2="1352.09" y2="2170.40" style="stroke:#90353B;stroke-width:8.64"/>
	<line x1="1380.93" y1="2170.40" x2="1422.75" y2="2170.40" style="stroke:#90353B;stroke-width:8.64"/>
	<line x1="1422.75" y1="2170.40" x2="1438.47" y2="2170.40" style="stroke:#90353B;stroke-width:8.64"/>
	<line x1="1467.30" y1="2170.40" x2="1522.99" y2="2170.40" style="stroke:#90353B;stroke-width:8.64"/>
	<line x1="1522.99" y1="2170.40" x2="1524.85" y2="2170.40" style="stroke:#90353B;stroke-width:8.64"/>
	<line x1="1553.68" y1="2170.40" x2="1611.35" y2="2170.40" style="stroke:#90353B;stroke-width:8.64"/>
	<line x1="1640.06" y1="2170.40" x2="1697.73" y2="2170.40" style="stroke:#90353B;stroke-width:8.64"/>
	<line x1="1726.56" y1="2170.40" x2="1784.10" y2="2170.40" style="stroke:#90353B;stroke-width:8.64"/>
	<line x1="1812.94" y1="2170.40" x2="1823.95" y2="2170.40" style="stroke:#90353B;stroke-width:8.64"/>
	<line x1="1823.95" y1="2170.40" x2="1870.48" y2="2170.40" style="stroke:#90353B;stroke-width:8.64"/>
	<line x1="1899.32" y1="2170.40" x2="1924.31" y2="2170.40" style="stroke:#90353B;stroke-width:8.64"/>
	<line x1="1924.31" y1="2170.40" x2="1956.61" y2="2166.68" style="stroke:#90353B;stroke-width:8.64"/>
	<line x1="1985.20" y1="2163.34" x2="2024.55" y2="2158.89" style="stroke:#90353B;stroke-width:8.64"/>
	<line x1="2024.55" y1="2158.89" x2="2040.88" y2="2151.34" style="stroke:#90353B;stroke-width:8.64"/>
	<line x1="2067.12" y1="2139.33" x2="2119.34" y2="2115.20" style="stroke:#90353B;stroke-width:8.64"/>
	<line x1="2143.35" y1="2099.36" x2="2190.13" y2="2065.82" style="stroke:#90353B;stroke-width:8.64"/>
	<line x1="2213.64" y1="2048.99" x2="2225.15" y2="2040.70" style="stroke:#90353B;stroke-width:8.64"/>
	<line x1="2225.15" y1="2040.70" x2="2257.82" y2="2012.36" style="stroke:#90353B;stroke-width:8.64"/>
	<line x1="2279.72" y1="1993.43" x2="2323.16" y2="1955.81" style="stroke:#90353B;stroke-width:8.64"/>
	<line x1="2343.82" y1="1935.63" x2="2384.54" y2="1895.04" style="stroke:#90353B;stroke-width:8.64"/>
	<line x1="2404.96" y1="1874.75" x2="2425.75" y2="1854.08" style="stroke:#90353B;stroke-width:8.64"/>
	<line x1="2425.75" y1="1854.08" x2="2443.94" y2="1832.42" style="stroke:#90353B;stroke-width:8.64"/>
	<line x1="2462.63" y1="1810.52" x2="2499.75" y2="1766.46" style="stroke:#90353B;stroke-width:8.64"/>
	<line x1="2518.31" y1="1744.43" x2="2526.11" y2="1735.15" style="stroke:#90353B;stroke-width:8.64"/>
	<line x1="2526.11" y1="1735.15" x2="2552.34" y2="1698.03" style="stroke:#90353B;stroke-width:8.64"/>
	<line x1="2568.93" y1="1674.39" x2="2602.09" y2="1627.36" style="stroke:#90353B;stroke-width:8.64"/>
	<line x1="2618.80" y1="1603.85" x2="2626.35" y2="1593.08" style="stroke:#90353B;stroke-width:8.64"/>
	<line x1="2626.35" y1="1593.08" x2="2648.74" y2="1554.72" style="stroke:#90353B;stroke-width:8.64"/>
	<line x1="2663.22" y1="1529.72" x2="2692.30" y2="1480.10" style="stroke:#90353B;stroke-width:8.64"/>
	<line x1="2706.78" y1="1455.22" x2="2726.71" y2="1421.07" style="stroke:#90353B;stroke-width:8.64"/>
	<line x1="2726.71" y1="1421.07" x2="2734.75" y2="1404.85" style="stroke:#90353B;stroke-width:8.64"/>
	<line x1="2747.37" y1="1378.99" x2="2772.74" y2="1327.26" style="stroke:#90353B;stroke-width:8.64"/>
	<line x1="2785.36" y1="1301.40" x2="2810.86" y2="1249.67" style="stroke:#90353B;stroke-width:8.64"/>
	<line x1="2823.48" y1="1223.80" x2="2826.95" y2="1216.75" style="stroke:#90353B;stroke-width:8.64"/>
	<line x1="2826.95" y1="1216.75" x2="2846.00" y2="1170.84" style="stroke:#90353B;stroke-width:8.64"/>
	<line x1="2857.02" y1="1144.23" x2="2878.92" y2="1091.01" style="stroke:#90353B;stroke-width:8.64"/>
	<line x1="2890.06" y1="1064.41" x2="2911.96" y2="1011.19" style="stroke:#90353B;stroke-width:8.64"/>
	<line x1="2922.97" y1="984.59" x2="2927.31" y2="974.31" style="stroke:#90353B;stroke-width:8.64"/>
	<line x1="2927.31" y1="974.31" x2="2942.03" y2="930.26" style="stroke:#90353B;stroke-width:8.64"/>
	<line x1="2951.07" y1="902.91" x2="2969.26" y2="848.21" style="stroke:#90353B;stroke-width:8.64"/>
	<line x1="2978.29" y1="820.86" x2="2996.48" y2="766.28" style="stroke:#90353B;stroke-width:8.64"/>
	<line x1="3005.64" y1="738.93" x2="3023.83" y2="684.36" style="stroke:#90353B;stroke-width:8.64"/>
	<line x1="3030.89" y1="656.39" x2="3042.02" y2="599.96" style="stroke:#90353B;stroke-width:8.64"/>
	<line x1="3047.59" y1="571.62" x2="3058.73" y2="515.19" style="stroke:#90353B;stroke-width:8.64"/>
	<line x1="3064.30" y1="486.97" x2="3075.43" y2="430.42" style="stroke:#90353B;stroke-width:8.64"/>
	<line x1="3081.00" y1="402.20" x2="3092.14" y2="345.64" style="stroke:#90353B;stroke-width:8.64"/>
	<line x1="3097.71" y1="317.43" x2="3108.85" y2="261.00" style="stroke:#90353B;stroke-width:8.64"/>
	<line x1="3114.42" y1="232.66" x2="3125.55" y2="176.23" style="stroke:#90353B;stroke-width:8.64"/>
	<line x1="855.98" y1="2233.63" x2="855.98" y2="100.86" style="stroke:#000000;stroke-width:5.76"/>
	<line x1="855.98" y1="2170.27" x2="815.88" y2="2170.27" style="stroke:#000000;stroke-width:5.76"/>
	<text x="765.90" y="2170.27" style="font-family:'Helvetica';font-size:99.99px;fill:#000000" transform="rotate(-90 765.90,2170.27)" text-anchor="middle">0</text>
	<line x1="855.98" y1="1769.06" x2="815.88" y2="1769.06" style="stroke:#000000;stroke-width:5.76"/>
	<text x="765.90" y="1769.06" style="font-family:'Helvetica';font-size:99.99px;fill:#000000" transform="rotate(-90 765.90,1769.06)" text-anchor="middle">.2</text>
	<line x1="855.98" y1="1367.85" x2="815.88" y2="1367.85" style="stroke:#000000;stroke-width:5.76"/>
	<text x="765.90" y="1367.85" style="font-family:'Helvetica';font-size:99.99px;fill:#000000" transform="rotate(-90 765.90,1367.85)" text-anchor="middle">.4</text>
	<line x1="855.98" y1="966.64" x2="815.88" y2="966.64" style="stroke:#000000;stroke-width:5.76"/>
	<text x="765.90" y="966.64" style="font-family:'Helvetica';font-size:99.99px;fill:#000000" transform="rotate(-90 765.90,966.64)" text-anchor="middle">.6</text>
	<line x1="855.98" y1="565.43" x2="815.88" y2="565.43" style="stroke:#000000;stroke-width:5.76"/>
	<text x="765.90" y="565.43" style="font-family:'Helvetica';font-size:99.99px;fill:#000000" transform="rotate(-90 765.90,565.43)" text-anchor="middle">.8</text>
	<line x1="855.98" y1="164.22" x2="815.88" y2="164.22" style="stroke:#000000;stroke-width:5.76"/>
	<text x="765.90" y="164.22" style="font-family:'Helvetica';font-size:99.99px;fill:#000000" transform="rotate(-90 765.90,164.22)" text-anchor="middle">1</text>
	<text x="655.89" y="1167.25" style="font-family:'Helvetica';font-size:99.99px;fill:#000000" transform="rotate(-90 655.89,1167.25)" text-anchor="middle">cumulative outcome proportion</text>
	<line x1="1058.56" y1="2233.63" x2="3191.39" y2="2233.63" style="stroke:#000000;stroke-width:5.76"/>
	<line x1="1121.92" y1="2233.63" x2="1121.92" y2="2273.73" style="stroke:#000000;stroke-width:5.76"/>
	<text x="1121.92" y="2363.59" style="font-family:'Helvetica';font-size:99.99px;fill:#000000" text-anchor="middle">0</text>
	<line x1="1523.12" y1="2233.63" x2="1523.12" y2="2273.73" style="stroke:#000000;stroke-width:5.76"/>
	<text x="1523.12" y="2363.59" style="font-family:'Helvetica';font-size:99.99px;fill:#000000" text-anchor="middle">20</text>
	<line x1="1924.31" y1="2233.63" x2="1924.31" y2="2273.73" style="stroke:#000000;stroke-width:5.76"/>
	<text x="1924.31" y="2363.59" style="font-family:'Helvetica';font-size:99.99px;fill:#000000" text-anchor="middle">40</text>
	<line x1="2325.51" y1="2233.63" x2="2325.51" y2="2273.73" style="stroke:#000000;stroke-width:5.76"/>
	<text x="2325.51" y="2363.59" style="font-family:'Helvetica';font-size:99.99px;fill:#000000" text-anchor="middle">60</text>
	<line x1="2726.71" y1="2233.63" x2="2726.71" y2="2273.73" style="stroke:#000000;stroke-width:5.76"/>
	<text x="2726.71" y="2363.59" style="font-family:'Helvetica';font-size:99.99px;fill:#000000" text-anchor="middle">80</text>
	<line x1="3128.03" y1="2233.63" x2="3128.03" y2="2273.73" style="stroke:#000000;stroke-width:5.76"/>
	<text x="3128.03" y="2363.59" style="font-family:'Helvetica';font-size:99.99px;fill:#000000" text-anchor="middle">100</text>
	<text x="2124.91" y="2473.60" style="font-family:'Helvetica';font-size:99.99px;fill:#000000" text-anchor="middle">population percentage</text>
	<rect x="890.50" y="2558.24" width="2468.81" height="186.37" style="fill:#FFFFFF"/>
	<rect x="893.38" y="2561.12" width="2463.05" height="180.61" style="fill:none;stroke:#000000;stroke-width:5.76"/>
	<line x1="933.69" y1="2651.43" x2="991.24" y2="2651.43" style="stroke:#1A476F;stroke-width:8.64"/>
	<line x1="1020.07" y1="2651.43" x2="1077.62" y2="2651.43" style="stroke:#1A476F;stroke-width:8.64"/>
	<line x1="1106.45" y1="2651.43" x2="1164.12" y2="2651.43" style="stroke:#1A476F;stroke-width:8.64"/>
	<line x1="1192.83" y1="2651.43" x2="1250.49" y2="2651.43" style="stroke:#1A476F;stroke-width:8.64"/>
	<line x1="1279.20" y1="2651.43" x2="1308.04" y2="2651.43" style="stroke:#1A476F;stroke-width:8.64"/>
	<line x1="2044.72" y1="2651.43" x2="2102.26" y2="2651.43" style="stroke:#90353B;stroke-width:8.64"/>
	<line x1="2131.10" y1="2651.43" x2="2188.64" y2="2651.43" style="stroke:#90353B;stroke-width:8.64"/>
	<line x1="2217.48" y1="2651.43" x2="2275.02" y2="2651.43" style="stroke:#90353B;stroke-width:8.64"/>
	<line x1="2303.85" y1="2651.43" x2="2361.40" y2="2651.43" style="stroke:#90353B;stroke-width:8.64"/>
	<line x1="2390.23" y1="2651.43" x2="2419.07" y2="2651.43" style="stroke:#90353B;stroke-width:8.64"/>
	<text x="1368.06" y="2686.46" style="font-family:'Helvetica';font-size:99.99px;fill:#000000">totalIncome</text>
	<text x="2479.08" y="2686.46" style="font-family:'Helvetica';font-size:99.99px;fill:#000000">disposableIncome</text>
</svg>
